<svg xmlns="http://www.w3.org/2000/svg" xmlns:xlink="http://www.w3.org/1999/xlink" id="exportSvg" width="2000" height="500"><defs/><rect width="2000" height="500" transform="translate(0, 0)" fill="rgb(255, 255, 255)" style="fill: rgb(255, 255, 255);"/><g><g id="__svelte-dw-svg" clip-path="url(#rect-mask-sHp2KNfWSM8Mnn9tuKZSa)"><clipPath id="rect-mask-sHp2KNfWSM8Mnn9tuKZSa"><rect x="0" y="0" width="2000" height="500"/></clipPath><g id="outer-container-svg dw-chart-styles-svg datawrapper-6CDpQ-cadg66-svg svelte-crzbxb-svg static-svg" clip-path="url(#rect-mask-q-r5CvchUOQ72Q0DnoBcg)"><clipPath id="rect-mask-q-r5CvchUOQ72Q0DnoBcg"><rect x="0" y="0" width="2000" height="500"/></clipPath><g id="header-svg"><text transform="translate(0, 0)"><tspan fill="rgb(0,0,0)" x="0" y="22" style="font-family: Roboto; font-weight: 700; font-stretch: 100%; font-size: 22px;">Fox News Primetime (+ The Five) Performance in June 2022</tspan></text><text transform="translate(0, 35)"><tspan fill="rgb(24,24,24)" x="0" y="14" style="font-family: Roboto; font-weight: 400; font-stretch: 100%; font-size: 14px;">*The data represents cable news ratings for Monday-Friday; the shows do not air on the weekends.</tspan></text></g><g id="chart-svg"><g id="svg-main-svg" clip-path="url(#rect-mask-NApUwHAW2ebtT4iwKd4pk)" transform="translate(0, 62)"><clipPath id="rect-mask-NApUwHAW2ebtT4iwKd4pk"><rect x="0" y="0" width="2000" height="405"/></clipPath><g id="group-svg" transform="translate(58.14063, 40)"><g id="x-grid-svg"/><g id="y-grid-svg"><g id="y-grid-lines-svg grid-y-svg datawrapper-6CDpQ-1fn7900-svg"><line x1="0" x2="1931.4287433624268" y1="0" y2="0" style="fill: none; stroke-width: 1; stroke-linejoin: miter; stroke-linecap: butt; stroke: rgb(231, 231, 231);"/><line x1="0" x2="1931.4287433624268" y1="0" y2="0" transform="translate(0, 34.5)" style="fill: none; stroke-width: 1; stroke-linejoin: miter; stroke-linecap: butt; stroke: rgb(231, 231, 231);"/><line x1="0" x2="1931.4287433624268" y1="0" y2="0" transform="translate(0, 69)" style="fill: none; stroke-width: 1; stroke-linejoin: miter; stroke-linecap: butt; stroke: rgb(231, 231, 231);"/><line x1="0" x2="1931.4287433624268" y1="0" y2="0" transform="translate(0, 103.5)" style="fill: none; stroke-width: 1; stroke-linejoin: miter; stroke-linecap: butt; stroke: rgb(231, 231, 231);"/><line x1="0" x2="1931.4287433624268" y1="0" y2="0" transform="translate(0, 138)" style="fill: none; stroke-width: 1; stroke-linejoin: miter; stroke-linecap: butt; stroke: rgb(231, 231, 231);"/><line x1="0" x2="1931.4287433624268" y1="0" y2="0" transform="translate(0, 172.5)" style="fill: none; stroke-width: 1; stroke-linejoin: miter; stroke-linecap: butt; stroke: rgb(231, 231, 231);"/><line x1="0" x2="1931.4287433624268" y1="0" y2="0" transform="translate(0, 207)" style="fill: none; stroke-width: 1; stroke-linejoin: miter; stroke-linecap: butt; stroke: rgb(231, 231, 231);"/><line x1="0" x2="1931.4287433624268" y1="0" y2="0" transform="translate(0, 241.5)" style="fill: none; stroke-width: 1; stroke-linejoin: miter; stroke-linecap: butt; stroke: rgb(231, 231, 231);"/><line x1="0" x2="1931.4287433624268" y1="0" y2="0" transform="translate(0, 276)" style="fill: none; stroke-width: 1; stroke-linejoin: miter; stroke-linecap: butt; stroke: rgb(231, 231, 231);"/><line x1="0" x2="1931.4287433624268" y1="0" y2="0" transform="translate(0, 310.5)" style="fill: none; stroke-width: 1; stroke-linejoin: miter; stroke-linecap: butt; stroke: rgb(231, 231, 231);"/><line x1="0" x2="1931.4287433624268" y1="0" y2="0" transform="translate(0, 345)" style="fill: none; stroke-width: 1; stroke-linejoin: miter; stroke-linecap: butt; stroke: rgb(231, 231, 231);"/></g></g><g id="lines-svg"><g id="FIVE,-svg THE-svg"><path d="M9.897510989996288,122.82L110.50981211538756,61.2375L211.12211324077882,89.87249999999999L311.7344143661701,40.537500000000016L412.3467154915613,71.07L512.9590166169526,72.6225L613.5713177423438,42.26250000000002L714.183618867735,2.7600000000000025L814.7959199931264,54.85500000000001L915.4082211185176,86.42249999999999L1016.020522243909,120.92250000000001L1116.6328233693002,36.91499999999999L1217.2451244946915,51.23249999999999L1317.8574256200827,49.68000000000001L1418.4697267454742,48.645L1519.0820278708652,79.35L1619.6943289962567,43.815L1720.3066301216477,63.9975L1820.9189312470392,74.34750000000001L1921.5312323724304,95.73749999999998" stroke="rgb(136,245,255)" id="FIVE, THE" style="fill: none; stroke-width: 2; stroke-linejoin: round; stroke-linecap: round; stroke: rgb(136, 245, 255);"/></g><g id="INGRAHAM-svg ANGLE,-svg THE-svg"><path d="M9.897510989996288,296.1825L110.50981211538756,248.57249999999996L211.12211324077882,268.755L311.7344143661701,252.195L412.3467154915613,128.34L512.9590166169526,284.7975L613.5713177423438,228.39L714.183618867735,176.12249999999997L814.7959199931264,223.04250000000002L915.4082211185176,217.005L1016.020522243909,303.77250000000004L1116.6328233693002,209.07L1217.2451244946915,237.8775L1317.8574256200827,225.97500000000002L1418.4697267454742,199.2375L1519.0820278708652,252.02249999999998L1619.6943289962567,215.625L1720.3066301216477,236.32500000000002L1820.9189312470392,205.44749999999996L1921.5312323724304,224.4225" stroke="rgb(88,202,248)" id="INGRAHAM ANGLE, THE" style="fill: none; stroke-width: 2; stroke-linejoin: round; stroke-linecap: round; stroke: rgb(88, 202, 248);"/></g><g id="JESSE-svg WATTERS-svg PRIMETIME-svg"><path d="M9.897510989996288,209.415L110.50981211538756,168.87750000000003L211.12211324077882,194.58L311.7344143661701,164.565L412.3467154915613,135.93L512.9590166169526,199.755L613.5713177423438,117.29999999999998L714.183618867735,94.185L814.7959199931264,153.86999999999998L915.4082211185176,165.7725L1016.020522243909,211.82999999999998L1116.6328233693002,101.60249999999999L1217.2451244946915,151.2825L1317.8574256200827,157.4925L1418.4697267454742,129.375L1519.0820278708652,227.8725L1619.6943289962567,147.48749999999998L1720.3066301216477,158.7L1820.9189312470392,135.7575L1921.5312323724304,193.20000000000002" stroke="rgb(24,161,205)" id="JESSE WATTERS PRIMETIME" style="fill: none; stroke-width: 2; stroke-linejoin: round; stroke-linecap: round; stroke: rgb(24, 161, 205);"/></g><g id="GUTFELD!-svg"><path d="M9.897510989996288,263.58L110.50981211538756,247.70999999999998L211.12211324077882,250.815L311.7344143661701,240.80999999999997L412.3467154915613,206.8275L512.9590166169526,261.165L613.5713177423438,262.2L714.183618867735,240.2925L814.7959199931264,211.65749999999997L915.4082211185176,223.04250000000002L1016.020522243909,247.1925L1116.6328233693002,215.625L1217.2451244946915,235.63500000000002L1317.8574256200827,231.6675L1418.4697267454742,218.73L1519.0820278708652,244.26L1619.6943289962567,227.35500000000002L1720.3066301216477,227.35500000000002L1820.9189312470392,241.6725L1921.5312323724304,241.15500000000003" stroke="rgb(0,122,164)" id="GUTFELD!" style="fill: none; stroke-width: 2; stroke-linejoin: round; stroke-linecap: round; stroke: rgb(0, 122, 164);"/></g><g id="HANNITY-svg"><path d="M9.897510989996288,215.625L110.50981211538756,167.325L211.12211324077882,222.6975L311.7344143661701,194.7525L412.3467154915613,120.05999999999999L512.9590166169526,223.215L613.5713177423438,178.02L714.183618867735,22.942500000000003L814.7959199931264,157.4925L915.4082211185176,182.67750000000004L1016.020522243909,245.985L1116.6328233693002,156.4575L1217.2451244946915,212.34749999999997L1317.8574256200827,160.07999999999998L1418.4697267454742,158.01L1519.0820278708652,242.88L1619.6943289962567,184.57499999999996L1720.3066301216477,211.65749999999997L1820.9189312470392,176.64000000000001L1921.5312323724304,174.74249999999998" stroke="rgb(0,85,125)" id="HANNITY" style="fill: none; stroke-width: 2; stroke-linejoin: round; stroke-linecap: round; stroke: rgb(0, 85, 125);"/></g></g><g id="line-symbols-svg"><path d="M1,0A1,1,0,1,1,-1,0A1,1,0,1,1,1,0" id="FIVE, THE" transform="translate(9.89751, 122.82) scale(5)" style="fill: rgb(136, 245, 255); opacity: 0.75;"/><path d="M1,0A1,1,0,1,1,-1,0A1,1,0,1,1,1,0" id="FIVE, THE" transform="translate(110.50981, 61.2375) scale(5)" style="fill: rgb(136, 245, 255); opacity: 0.75;"/><path d="M1,0A1,1,0,1,1,-1,0A1,1,0,1,1,1,0" id="FIVE, THE" transform="translate(211.12211, 89.8725) scale(5)" style="fill: rgb(136, 245, 255); opacity: 0.75;"/><path d="M1,0A1,1,0,1,1,-1,0A1,1,0,1,1,1,0" id="FIVE, THE" transform="translate(311.73441, 40.5375) scale(5)" style="fill: rgb(136, 245, 255); opacity: 0.75;"/><path d="M1,0A1,1,0,1,1,-1,0A1,1,0,1,1,1,0" id="FIVE, THE" transform="translate(412.34672, 71.07) scale(5)" style="fill: rgb(136, 245, 255); opacity: 0.75;"/><path d="M1,0A1,1,0,1,1,-1,0A1,1,0,1,1,1,0" id="FIVE, THE" transform="translate(512.95902, 72.6225) scale(5)" style="fill: rgb(136, 245, 255); opacity: 0.75;"/><path d="M1,0A1,1,0,1,1,-1,0A1,1,0,1,1,1,0" id="FIVE, THE" transform="translate(613.57132, 42.2625) scale(5)" style="fill: rgb(136, 245, 255); opacity: 0.75;"/><path d="M1,0A1,1,0,1,1,-1,0A1,1,0,1,1,1,0" id="FIVE, THE" transform="translate(714.18362, 2.76) scale(5)" style="fill: rgb(136, 245, 255); opacity: 0.75;"/><path d="M1,0A1,1,0,1,1,-1,0A1,1,0,1,1,1,0" id="FIVE, THE" transform="translate(814.79592, 54.855) scale(5)" style="fill: rgb(136, 245, 255); opacity: 0.75;"/><path d="M1,0A1,1,0,1,1,-1,0A1,1,0,1,1,1,0" id="FIVE, THE" transform="translate(915.40822, 86.4225) scale(5)" style="fill: rgb(136, 245, 255); opacity: 0.75;"/><path d="M1,0A1,1,0,1,1,-1,0A1,1,0,1,1,1,0" id="FIVE, THE" transform="translate(1016.02052, 120.9225) scale(5)" style="fill: rgb(136, 245, 255); opacity: 0.75;"/><path d="M1,0A1,1,0,1,1,-1,0A1,1,0,1,1,1,0" id="FIVE, THE" transform="translate(1116.63282, 36.915) scale(5)" style="fill: rgb(136, 245, 255); opacity: 0.75;"/><path d="M1,0A1,1,0,1,1,-1,0A1,1,0,1,1,1,0" id="FIVE, THE" transform="translate(1217.24512, 51.2325) scale(5)" style="fill: rgb(136, 245, 255); opacity: 0.75;"/><path d="M1,0A1,1,0,1,1,-1,0A1,1,0,1,1,1,0" id="FIVE, THE" transform="translate(1317.85743, 49.68) scale(5)" style="fill: rgb(136, 245, 255); opacity: 0.75;"/><path d="M1,0A1,1,0,1,1,-1,0A1,1,0,1,1,1,0" id="FIVE, THE" transform="translate(1418.46973, 48.645) scale(5)" style="fill: rgb(136, 245, 255); opacity: 0.75;"/><path d="M1,0A1,1,0,1,1,-1,0A1,1,0,1,1,1,0" id="FIVE, THE" transform="translate(1519.08203, 79.35) scale(5)" style="fill: rgb(136, 245, 255); opacity: 0.75;"/><path d="M1,0A1,1,0,1,1,-1,0A1,1,0,1,1,1,0" id="FIVE, THE" transform="translate(1619.69433, 43.815) scale(5)" style="fill: rgb(136, 245, 255); opacity: 0.75;"/><path d="M1,0A1,1,0,1,1,-1,0A1,1,0,1,1,1,0" id="FIVE, THE" transform="translate(1720.30663, 63.9975) scale(5)" style="fill: rgb(136, 245, 255); opacity: 0.75;"/><path d="M1,0A1,1,0,1,1,-1,0A1,1,0,1,1,1,0" id="FIVE, THE" transform="translate(1820.91893, 74.3475) scale(5)" style="fill: rgb(136, 245, 255); opacity: 0.75;"/><path d="M1,0A1,1,0,1,1,-1,0A1,1,0,1,1,1,0" id="FIVE, THE" transform="translate(1921.53123, 95.7375) scale(5)" style="fill: rgb(136, 245, 255); opacity: 0.75;"/><path d="M1,0A1,1,0,1,1,-1,0A1,1,0,1,1,1,0" id="INGRAHAM ANGLE, THE" transform="translate(9.89751, 296.1825) scale(5)" style="fill: rgb(88, 202, 248); opacity: 0.75;"/><path d="M1,0A1,1,0,1,1,-1,0A1,1,0,1,1,1,0" id="INGRAHAM ANGLE, THE" transform="translate(110.50981, 248.5725) scale(5)" style="fill: rgb(88, 202, 248); opacity: 0.75;"/><path d="M1,0A1,1,0,1,1,-1,0A1,1,0,1,1,1,0" id="INGRAHAM ANGLE, THE" transform="translate(211.12211, 268.755) scale(5)" style="fill: rgb(88, 202, 248); opacity: 0.75;"/><path d="M1,0A1,1,0,1,1,-1,0A1,1,0,1,1,1,0" id="INGRAHAM ANGLE, THE" transform="translate(311.73441, 252.195) scale(5)" style="fill: rgb(88, 202, 248); opacity: 0.75;"/><path d="M1,0A1,1,0,1,1,-1,0A1,1,0,1,1,1,0" id="INGRAHAM ANGLE, THE" transform="translate(412.34672, 128.34) scale(5)" style="fill: rgb(88, 202, 248); opacity: 0.75;"/><path d="M1,0A1,1,0,1,1,-1,0A1,1,0,1,1,1,0" id="INGRAHAM ANGLE, THE" transform="translate(512.95902, 284.7975) scale(5)" style="fill: rgb(88, 202, 248); opacity: 0.75;"/><path d="M1,0A1,1,0,1,1,-1,0A1,1,0,1,1,1,0" id="INGRAHAM ANGLE, THE" transform="translate(613.57132, 228.39) scale(5)" style="fill: rgb(88, 202, 248); opacity: 0.75;"/><path d="M1,0A1,1,0,1,1,-1,0A1,1,0,1,1,1,0" id="INGRAHAM ANGLE, THE" transform="translate(714.18362, 176.1225) scale(5)" style="fill: rgb(88, 202, 248); opacity: 0.75;"/><path d="M1,0A1,1,0,1,1,-1,0A1,1,0,1,1,1,0" id="INGRAHAM ANGLE, THE" transform="translate(814.79592, 223.0425) scale(5)" style="fill: rgb(88, 202, 248); opacity: 0.75;"/><path d="M1,0A1,1,0,1,1,-1,0A1,1,0,1,1,1,0" id="INGRAHAM ANGLE, THE" transform="translate(915.40822, 217.005) scale(5)" style="fill: rgb(88, 202, 248); opacity: 0.75;"/><path d="M1,0A1,1,0,1,1,-1,0A1,1,0,1,1,1,0" id="INGRAHAM ANGLE, THE" transform="translate(1016.02052, 303.7725) scale(5)" style="fill: rgb(88, 202, 248); opacity: 0.75;"/><path d="M1,0A1,1,0,1,1,-1,0A1,1,0,1,1,1,0" id="INGRAHAM ANGLE, THE" transform="translate(1116.63282, 209.07) scale(5)" style="fill: rgb(88, 202, 248); opacity: 0.75;"/><path d="M1,0A1,1,0,1,1,-1,0A1,1,0,1,1,1,0" id="INGRAHAM ANGLE, THE" transform="translate(1217.24512, 237.8775) scale(5)" style="fill: rgb(88, 202, 248); opacity: 0.75;"/><path d="M1,0A1,1,0,1,1,-1,0A1,1,0,1,1,1,0" id="INGRAHAM ANGLE, THE" transform="translate(1317.85743, 225.975) scale(5)" style="fill: rgb(88, 202, 248); opacity: 0.75;"/><path d="M1,0A1,1,0,1,1,-1,0A1,1,0,1,1,1,0" id="INGRAHAM ANGLE, THE" transform="translate(1418.46973, 199.2375) scale(5)" style="fill: rgb(88, 202, 248); opacity: 0.75;"/><path d="M1,0A1,1,0,1,1,-1,0A1,1,0,1,1,1,0" id="INGRAHAM ANGLE, THE" transform="translate(1519.08203, 252.0225) scale(5)" style="fill: rgb(88, 202, 248); opacity: 0.75;"/><path d="M1,0A1,1,0,1,1,-1,0A1,1,0,1,1,1,0" id="INGRAHAM ANGLE, THE" transform="translate(1619.69433, 215.625) scale(5)" style="fill: rgb(88, 202, 248); opacity: 0.75;"/><path d="M1,0A1,1,0,1,1,-1,0A1,1,0,1,1,1,0" id="INGRAHAM ANGLE, THE" transform="translate(1720.30663, 236.325) scale(5)" style="fill: rgb(88, 202, 248); opacity: 0.75;"/><path d="M1,0A1,1,0,1,1,-1,0A1,1,0,1,1,1,0" id="INGRAHAM ANGLE, THE" transform="translate(1820.91893, 205.4475) scale(5)" style="fill: rgb(88, 202, 248); opacity: 0.75;"/><path d="M1,0A1,1,0,1,1,-1,0A1,1,0,1,1,1,0" id="INGRAHAM ANGLE, THE" transform="translate(1921.53123, 224.4225) scale(5)" style="fill: rgb(88, 202, 248); opacity: 0.75;"/><path d="M1,0A1,1,0,1,1,-1,0A1,1,0,1,1,1,0" id="JESSE WATTERS PRIMETIME" transform="translate(9.89751, 209.415) scale(5)" style="fill: rgb(24, 161, 205); opacity: 0.75;"/><path d="M1,0A1,1,0,1,1,-1,0A1,1,0,1,1,1,0" id="JESSE WATTERS PRIMETIME" transform="translate(110.50981, 168.8775) scale(5)" style="fill: rgb(24, 161, 205); opacity: 0.75;"/><path d="M1,0A1,1,0,1,1,-1,0A1,1,0,1,1,1,0" id="JESSE WATTERS PRIMETIME" transform="translate(211.12211, 194.58) scale(5)" style="fill: rgb(24, 161, 205); opacity: 0.75;"/><path d="M1,0A1,1,0,1,1,-1,0A1,1,0,1,1,1,0" id="JESSE WATTERS PRIMETIME" transform="translate(311.73441, 164.565) scale(5)" style="fill: rgb(24, 161, 205); opacity: 0.75;"/><path d="M1,0A1,1,0,1,1,-1,0A1,1,0,1,1,1,0" id="JESSE WATTERS PRIMETIME" transform="translate(412.34672, 135.93) scale(5)" style="fill: rgb(24, 161, 205); opacity: 0.75;"/><path d="M1,0A1,1,0,1,1,-1,0A1,1,0,1,1,1,0" id="JESSE WATTERS PRIMETIME" transform="translate(512.95902, 199.755) scale(5)" style="fill: rgb(24, 161, 205); opacity: 0.75;"/><path d="M1,0A1,1,0,1,1,-1,0A1,1,0,1,1,1,0" id="JESSE WATTERS PRIMETIME" transform="translate(613.57132, 117.3) scale(5)" style="fill: rgb(24, 161, 205); opacity: 0.75;"/><path d="M1,0A1,1,0,1,1,-1,0A1,1,0,1,1,1,0" id="JESSE WATTERS PRIMETIME" transform="translate(714.18362, 94.185) scale(5)" style="fill: rgb(24, 161, 205); opacity: 0.75;"/><path d="M1,0A1,1,0,1,1,-1,0A1,1,0,1,1,1,0" id="JESSE WATTERS PRIMETIME" transform="translate(814.79592, 153.87) scale(5)" style="fill: rgb(24, 161, 205); opacity: 0.75;"/><path d="M1,0A1,1,0,1,1,-1,0A1,1,0,1,1,1,0" id="JESSE WATTERS PRIMETIME" transform="translate(915.40822, 165.7725) scale(5)" style="fill: rgb(24, 161, 205); opacity: 0.75;"/><path d="M1,0A1,1,0,1,1,-1,0A1,1,0,1,1,1,0" id="JESSE WATTERS PRIMETIME" transform="translate(1016.02052, 211.83) scale(5)" style="fill: rgb(24, 161, 205); opacity: 0.75;"/><path d="M1,0A1,1,0,1,1,-1,0A1,1,0,1,1,1,0" id="JESSE WATTERS PRIMETIME" transform="translate(1116.63282, 101.6025) scale(5)" style="fill: rgb(24, 161, 205); opacity: 0.75;"/><path d="M1,0A1,1,0,1,1,-1,0A1,1,0,1,1,1,0" id="JESSE WATTERS PRIMETIME" transform="translate(1217.24512, 151.2825) scale(5)" style="fill: rgb(24, 161, 205); opacity: 0.75;"/><path d="M1,0A1,1,0,1,1,-1,0A1,1,0,1,1,1,0" id="JESSE WATTERS PRIMETIME" transform="translate(1317.85743, 157.4925) scale(5)" style="fill: rgb(24, 161, 205); opacity: 0.75;"/><path d="M1,0A1,1,0,1,1,-1,0A1,1,0,1,1,1,0" id="JESSE WATTERS PRIMETIME" transform="translate(1418.46973, 129.375) scale(5)" style="fill: rgb(24, 161, 205); opacity: 0.75;"/><path d="M1,0A1,1,0,1,1,-1,0A1,1,0,1,1,1,0" id="JESSE WATTERS PRIMETIME" transform="translate(1519.08203, 227.8725) scale(5)" style="fill: rgb(24, 161, 205); opacity: 0.75;"/><path d="M1,0A1,1,0,1,1,-1,0A1,1,0,1,1,1,0" id="JESSE WATTERS PRIMETIME" transform="translate(1619.69433, 147.4875) scale(5)" style="fill: rgb(24, 161, 205); opacity: 0.75;"/><path d="M1,0A1,1,0,1,1,-1,0A1,1,0,1,1,1,0" id="JESSE WATTERS PRIMETIME" transform="translate(1720.30663, 158.7) scale(5)" style="fill: rgb(24, 161, 205); opacity: 0.75;"/><path d="M1,0A1,1,0,1,1,-1,0A1,1,0,1,1,1,0" id="JESSE WATTERS PRIMETIME" transform="translate(1820.91893, 135.7575) scale(5)" style="fill: rgb(24, 161, 205); opacity: 0.75;"/><path d="M1,0A1,1,0,1,1,-1,0A1,1,0,1,1,1,0" id="JESSE WATTERS PRIMETIME" transform="translate(1921.53123, 193.2) scale(5)" style="fill: rgb(24, 161, 205); opacity: 0.75;"/><path d="M1,0A1,1,0,1,1,-1,0A1,1,0,1,1,1,0" id="GUTFELD!" transform="translate(9.89751, 263.58) scale(5)" style="fill: rgb(0, 122, 164); opacity: 0.75;"/><path d="M1,0A1,1,0,1,1,-1,0A1,1,0,1,1,1,0" id="GUTFELD!" transform="translate(110.50981, 247.71) scale(5)" style="fill: rgb(0, 122, 164); opacity: 0.75;"/><path d="M1,0A1,1,0,1,1,-1,0A1,1,0,1,1,1,0" id="GUTFELD!" transform="translate(211.12211, 250.815) scale(5)" style="fill: rgb(0, 122, 164); opacity: 0.75;"/><path d="M1,0A1,1,0,1,1,-1,0A1,1,0,1,1,1,0" id="GUTFELD!" transform="translate(311.73441, 240.81) scale(5)" style="fill: rgb(0, 122, 164); opacity: 0.75;"/><path d="M1,0A1,1,0,1,1,-1,0A1,1,0,1,1,1,0" id="GUTFELD!" transform="translate(412.34672, 206.8275) scale(5)" style="fill: rgb(0, 122, 164); opacity: 0.75;"/><path d="M1,0A1,1,0,1,1,-1,0A1,1,0,1,1,1,0" id="GUTFELD!" transform="translate(512.95902, 261.165) scale(5)" style="fill: rgb(0, 122, 164); opacity: 0.75;"/><path d="M1,0A1,1,0,1,1,-1,0A1,1,0,1,1,1,0" id="GUTFELD!" transform="translate(613.57132, 262.2) scale(5)" style="fill: rgb(0, 122, 164); opacity: 0.75;"/><path d="M1,0A1,1,0,1,1,-1,0A1,1,0,1,1,1,0" id="GUTFELD!" transform="translate(714.18362, 240.2925) scale(5)" style="fill: rgb(0, 122, 164); opacity: 0.75;"/><path d="M1,0A1,1,0,1,1,-1,0A1,1,0,1,1,1,0" id="GUTFELD!" transform="translate(814.79592, 211.6575) scale(5)" style="fill: rgb(0, 122, 164); opacity: 0.75;"/><path d="M1,0A1,1,0,1,1,-1,0A1,1,0,1,1,1,0" id="GUTFELD!" transform="translate(915.40822, 223.0425) scale(5)" style="fill: rgb(0, 122, 164); opacity: 0.75;"/><path d="M1,0A1,1,0,1,1,-1,0A1,1,0,1,1,1,0" id="GUTFELD!" transform="translate(1016.02052, 247.1925) scale(5)" style="fill: rgb(0, 122, 164); opacity: 0.75;"/><path d="M1,0A1,1,0,1,1,-1,0A1,1,0,1,1,1,0" id="GUTFELD!" transform="translate(1116.63282, 215.625) scale(5)" style="fill: rgb(0, 122, 164); opacity: 0.75;"/><path d="M1,0A1,1,0,1,1,-1,0A1,1,0,1,1,1,0" id="GUTFELD!" transform="translate(1217.24512, 235.635) scale(5)" style="fill: rgb(0, 122, 164); opacity: 0.75;"/><path d="M1,0A1,1,0,1,1,-1,0A1,1,0,1,1,1,0" id="GUTFELD!" transform="translate(1317.85743, 231.6675) scale(5)" style="fill: rgb(0, 122, 164); opacity: 0.75;"/><path d="M1,0A1,1,0,1,1,-1,0A1,1,0,1,1,1,0" id="GUTFELD!" transform="translate(1418.46973, 218.73) scale(5)" style="fill: rgb(0, 122, 164); opacity: 0.75;"/><path d="M1,0A1,1,0,1,1,-1,0A1,1,0,1,1,1,0" id="GUTFELD!" transform="translate(1519.08203, 244.26) scale(5)" style="fill: rgb(0, 122, 164); opacity: 0.75;"/><path d="M1,0A1,1,0,1,1,-1,0A1,1,0,1,1,1,0" id="GUTFELD!" transform="translate(1619.69433, 227.355) scale(5)" style="fill: rgb(0, 122, 164); opacity: 0.75;"/><path d="M1,0A1,1,0,1,1,-1,0A1,1,0,1,1,1,0" id="GUTFELD!" transform="translate(1720.30663, 227.355) scale(5)" style="fill: rgb(0, 122, 164); opacity: 0.75;"/><path d="M1,0A1,1,0,1,1,-1,0A1,1,0,1,1,1,0" id="GUTFELD!" transform="translate(1820.91893, 241.6725) scale(5)" style="fill: rgb(0, 122, 164); opacity: 0.75;"/><path d="M1,0A1,1,0,1,1,-1,0A1,1,0,1,1,1,0" id="GUTFELD!" transform="translate(1921.53123, 241.155) scale(5)" style="fill: rgb(0, 122, 164); opacity: 0.75;"/><path d="M1,0A1,1,0,1,1,-1,0A1,1,0,1,1,1,0" id="HANNITY" transform="translate(9.89751, 215.625) scale(5)" style="fill: rgb(0, 85, 125); opacity: 0.75;"/><path d="M1,0A1,1,0,1,1,-1,0A1,1,0,1,1,1,0" id="HANNITY" transform="translate(110.50981, 167.325) scale(5)" style="fill: rgb(0, 85, 125); opacity: 0.75;"/><path d="M1,0A1,1,0,1,1,-1,0A1,1,0,1,1,1,0" id="HANNITY" transform="translate(211.12211, 222.6975) scale(5)" style="fill: rgb(0, 85, 125); opacity: 0.75;"/><path d="M1,0A1,1,0,1,1,-1,0A1,1,0,1,1,1,0" id="HANNITY" transform="translate(311.73441, 194.7525) scale(5)" style="fill: rgb(0, 85, 125); opacity: 0.75;"/><path d="M1,0A1,1,0,1,1,-1,0A1,1,0,1,1,1,0" id="HANNITY" transform="translate(412.34672, 120.06) scale(5)" style="fill: rgb(0, 85, 125); opacity: 0.75;"/><path d="M1,0A1,1,0,1,1,-1,0A1,1,0,1,1,1,0" id="HANNITY" transform="translate(512.95902, 223.215) scale(5)" style="fill: rgb(0, 85, 125); opacity: 0.75;"/><path d="M1,0A1,1,0,1,1,-1,0A1,1,0,1,1,1,0" id="HANNITY" transform="translate(613.57132, 178.02) scale(5)" style="fill: rgb(0, 85, 125); opacity: 0.75;"/><path d="M1,0A1,1,0,1,1,-1,0A1,1,0,1,1,1,0" id="HANNITY" transform="translate(714.18362, 22.9425) scale(5)" style="fill: rgb(0, 85, 125); opacity: 0.75;"/><path d="M1,0A1,1,0,1,1,-1,0A1,1,0,1,1,1,0" id="HANNITY" transform="translate(814.79592, 157.4925) scale(5)" style="fill: rgb(0, 85, 125); opacity: 0.75;"/><path d="M1,0A1,1,0,1,1,-1,0A1,1,0,1,1,1,0" id="HANNITY" transform="translate(915.40822, 182.6775) scale(5)" style="fill: rgb(0, 85, 125); opacity: 0.75;"/><path d="M1,0A1,1,0,1,1,-1,0A1,1,0,1,1,1,0" id="HANNITY" transform="translate(1016.02052, 245.985) scale(5)" style="fill: rgb(0, 85, 125); opacity: 0.75;"/><path d="M1,0A1,1,0,1,1,-1,0A1,1,0,1,1,1,0" id="HANNITY" transform="translate(1116.63282, 156.4575) scale(5)" style="fill: rgb(0, 85, 125); opacity: 0.75;"/><path d="M1,0A1,1,0,1,1,-1,0A1,1,0,1,1,1,0" id="HANNITY" transform="translate(1217.24512, 212.3475) scale(5)" style="fill: rgb(0, 85, 125); opacity: 0.75;"/><path d="M1,0A1,1,0,1,1,-1,0A1,1,0,1,1,1,0" id="HANNITY" transform="translate(1317.85743, 160.08) scale(5)" style="fill: rgb(0, 85, 125); opacity: 0.75;"/><path d="M1,0A1,1,0,1,1,-1,0A1,1,0,1,1,1,0" id="HANNITY" transform="translate(1418.46973, 158.01) scale(5)" style="fill: rgb(0, 85, 125); opacity: 0.75;"/><path d="M1,0A1,1,0,1,1,-1,0A1,1,0,1,1,1,0" id="HANNITY" transform="translate(1519.08203, 242.88) scale(5)" style="fill: rgb(0, 85, 125); opacity: 0.75;"/><path d="M1,0A1,1,0,1,1,-1,0A1,1,0,1,1,1,0" id="HANNITY" transform="translate(1619.69433, 184.575) scale(5)" style="fill: rgb(0, 85, 125); opacity: 0.75;"/><path d="M1,0A1,1,0,1,1,-1,0A1,1,0,1,1,1,0" id="HANNITY" transform="translate(1720.30663, 211.6575) scale(5)" style="fill: rgb(0, 85, 125); opacity: 0.75;"/><path d="M1,0A1,1,0,1,1,-1,0A1,1,0,1,1,1,0" id="HANNITY" transform="translate(1820.91893, 176.64) scale(5)" style="fill: rgb(0, 85, 125); opacity: 0.75;"/><path d="M1,0A1,1,0,1,1,-1,0A1,1,0,1,1,1,0" id="HANNITY" transform="translate(1921.53123, 174.7425) scale(5)" style="fill: rgb(0, 85, 125); opacity: 0.75;"/></g><g id="x-grid-svg"><g id="x-tick-labels-svg text-axis-svg grid-x-svg datawrapper-6CDpQ-63wp0p-svg" transform="translate(0, 350)"><text transform="translate(9.89751, 12) translate(-14.95312, 0) translate(14.953123092651367, 0)" style="text-anchor: middle;"><tspan fill="rgb(116, 116, 116)" style="font-family: Roboto; font-weight: 400; font-stretch: 100%; font-size: 12px;" x="0" dominant-baseline="auto" y="0">2-Jun</tspan></text><text transform="translate(110.50981, 12) translate(-14.95313, 0) translate(14.953125, 0)" style="text-anchor: middle;"><tspan fill="rgb(116, 116, 116)" style="font-family: Roboto; font-weight: 400; font-stretch: 100%; font-size: 12px;" x="0" dominant-baseline="auto" y="0">5-Jun</tspan></text><text transform="translate(211.12211, 12) translate(-14.95313, 0) translate(14.953132629394531, 0)" style="text-anchor: middle;"><tspan fill="rgb(116, 116, 116)" style="font-family: Roboto; font-weight: 400; font-stretch: 100%; font-size: 12px;" x="0" dominant-baseline="auto" y="0">6-Jun</tspan></text><text transform="translate(311.73441, 12) translate(-14.95313, 0) translate(14.953125, 0)" style="text-anchor: middle;"><tspan fill="rgb(116, 116, 116)" style="font-family: Roboto; font-weight: 400; font-stretch: 100%; font-size: 12px;" x="0" dominant-baseline="auto" y="0">7-Jun</tspan></text><text transform="translate(412.34672, 12) translate(-14.95313, 0) translate(14.953125, 0)" style="text-anchor: middle;"><tspan fill="rgb(116, 116, 116)" style="font-family: Roboto; font-weight: 400; font-stretch: 100%; font-size: 12px;" x="0" dominant-baseline="auto" y="0">8-Jun</tspan></text><text transform="translate(512.95902, 12) translate(-14.95313, 0) translate(14.953125, 0)" style="text-anchor: middle;"><tspan fill="rgb(116, 116, 116)" style="font-family: Roboto; font-weight: 400; font-stretch: 100%; font-size: 12px;" x="0" dominant-baseline="auto" y="0">9-Jun</tspan></text><text transform="translate(613.57132, 12) translate(-18.32813, 0) translate(18.328125, 0)" style="text-anchor: middle;"><tspan fill="rgb(116, 116, 116)" style="font-family: Roboto; font-weight: 400; font-stretch: 100%; font-size: 12px;" x="0" dominant-baseline="auto" y="0">12-Jun</tspan></text><text transform="translate(714.18362, 12) translate(-18.32813, 0) translate(18.328125, 0)" style="text-anchor: middle;"><tspan fill="rgb(116, 116, 116)" style="font-family: Roboto; font-weight: 400; font-stretch: 100%; font-size: 12px;" x="0" dominant-baseline="auto" y="0">13-Jun</tspan></text><text transform="translate(814.79592, 12) translate(-18.32813, 0) translate(18.328125, 0)" style="text-anchor: middle;"><tspan fill="rgb(116, 116, 116)" style="font-family: Roboto; font-weight: 400; font-stretch: 100%; font-size: 12px;" x="0" dominant-baseline="auto" y="0">14-Jun</tspan></text><text transform="translate(915.40822, 12) translate(-18.32813, 0) translate(18.328125, 0)" style="text-anchor: middle;"><tspan fill="rgb(116, 116, 116)" style="font-family: Roboto; font-weight: 400; font-stretch: 100%; font-size: 12px;" x="0" dominant-baseline="auto" y="0">15-Jun</tspan></text><text transform="translate(1016.02052, 12) translate(-18.32813, 0) translate(18.328125, 0)" style="text-anchor: middle;"><tspan fill="rgb(116, 116, 116)" style="font-family: Roboto; font-weight: 400; font-stretch: 100%; font-size: 12px;" x="0" dominant-baseline="auto" y="0">16-Jun</tspan></text><text transform="translate(1116.63282, 12) translate(-18.32813, 0) translate(18.328125, 0)" style="text-anchor: middle;"><tspan fill="rgb(116, 116, 116)" style="font-family: Roboto; font-weight: 400; font-stretch: 100%; font-size: 12px;" x="0" dominant-baseline="auto" y="0">19-Jun</tspan></text><text transform="translate(1217.24512, 12) translate(-18.32813, 0) translate(18.328125, 0)" style="text-anchor: middle;"><tspan fill="rgb(116, 116, 116)" style="font-family: Roboto; font-weight: 400; font-stretch: 100%; font-size: 12px;" x="0" dominant-baseline="auto" y="0">20-Jun</tspan></text><text transform="translate(1317.85743, 12) translate(-18.32813, 0) translate(18.328125, 0)" style="text-anchor: middle;"><tspan fill="rgb(116, 116, 116)" style="font-family: Roboto; font-weight: 400; font-stretch: 100%; font-size: 12px;" x="0" dominant-baseline="auto" y="0">21-Jun</tspan></text><text transform="translate(1418.46973, 12) translate(-18.32813, 0) translate(18.328125, 0)" style="text-anchor: middle;"><tspan fill="rgb(116, 116, 116)" style="font-family: Roboto; font-weight: 400; font-stretch: 100%; font-size: 12px;" x="0" dominant-baseline="auto" y="0">22-Jun</tspan></text><text transform="translate(1519.08203, 12) translate(-18.32813, 0) translate(18.328125, 0)" style="text-anchor: middle;"><tspan fill="rgb(116, 116, 116)" style="font-family: Roboto; font-weight: 400; font-stretch: 100%; font-size: 12px;" x="0" dominant-baseline="auto" y="0">23-Jun</tspan></text><text transform="translate(1619.69433, 12) translate(-18.32813, 0) translate(18.328125, 0)" style="text-anchor: middle;"><tspan fill="rgb(116, 116, 116)" style="font-family: Roboto; font-weight: 400; font-stretch: 100%; font-size: 12px;" x="0" dominant-baseline="auto" y="0">26-Jun</tspan></text><text transform="translate(1720.30663, 12) translate(-18.32813, 0) translate(18.328125, 0)" style="text-anchor: middle;"><tspan fill="rgb(116, 116, 116)" style="font-family: Roboto; font-weight: 400; font-stretch: 100%; font-size: 12px;" x="0" dominant-baseline="auto" y="0">27-Jun</tspan></text><text transform="translate(1820.91893, 12) translate(-18.32813, 0) translate(18.328125, 0)" style="text-anchor: middle;"><tspan fill="rgb(116, 116, 116)" style="font-family: Roboto; font-weight: 400; font-stretch: 100%; font-size: 12px;" x="0" dominant-baseline="auto" y="0">28-Jun</tspan></text><text transform="translate(1921.53123, 12) translate(-18.32813, 0) translate(18.328125, 0)" style="text-anchor: middle;"><tspan fill="rgb(116, 116, 116)" style="font-family: Roboto; font-weight: 400; font-stretch: 100%; font-size: 12px;" x="0" dominant-baseline="auto" y="0">29-Jun</tspan></text></g></g><g id="y-grid-svg"><g id="y-tick-labels-svg number-axis-svg grid-y-svg datawrapper-6CDpQ-yhj5g2-svg" transform="translate(-5, 0)"><text transform="translate(0, 349) translate(-52.14063, 0) translate(52.140625, 0)" style="text-anchor: end;"><tspan fill="rgb(162, 162, 162)" style="font-family: Roboto; font-weight: 400; font-stretch: 100%; font-size: 12px;" x="0" dominant-baseline="auto" y="0">1,000,000</tspan></text><text transform="translate(0, 314.5) translate(-52.14063, 0) translate(52.140625, 0)" style="text-anchor: end;"><tspan fill="rgb(162, 162, 162)" style="font-family: Roboto; font-weight: 400; font-stretch: 100%; font-size: 12px;" x="0" dominant-baseline="auto" y="0">1,200,000</tspan></text><text transform="translate(0, 280) translate(-52.14063, 0) translate(52.140625, 0)" style="text-anchor: end;"><tspan fill="rgb(162, 162, 162)" style="font-family: Roboto; font-weight: 400; font-stretch: 100%; font-size: 12px;" x="0" dominant-baseline="auto" y="0">1,400,000</tspan></text><text transform="translate(0, 245.5) translate(-52.14063, 0) translate(52.140625, 0)" style="text-anchor: end;"><tspan fill="rgb(162, 162, 162)" style="font-family: Roboto; font-weight: 400; font-stretch: 100%; font-size: 12px;" x="0" dominant-baseline="auto" y="0">1,600,000</tspan></text><text transform="translate(0, 211) translate(-52.14063, 0) translate(52.140625, 0)" style="text-anchor: end;"><tspan fill="rgb(162, 162, 162)" style="font-family: Roboto; font-weight: 400; font-stretch: 100%; font-size: 12px;" x="0" dominant-baseline="auto" y="0">1,800,000</tspan></text><text transform="translate(0, 176.5) translate(-52.14063, 0) translate(52.140625, 0)" style="text-anchor: end;"><tspan fill="rgb(162, 162, 162)" style="font-family: Roboto; font-weight: 400; font-stretch: 100%; font-size: 12px;" x="0" dominant-baseline="auto" y="0">2,000,000</tspan></text><text transform="translate(0, 142) translate(-52.14063, 0) translate(52.140625, 0)" style="text-anchor: end;"><tspan fill="rgb(162, 162, 162)" style="font-family: Roboto; font-weight: 400; font-stretch: 100%; font-size: 12px;" x="0" dominant-baseline="auto" y="0">2,200,000</tspan></text><text transform="translate(0, 107.5) translate(-52.14063, 0) translate(52.140625, 0)" style="text-anchor: end;"><tspan fill="rgb(162, 162, 162)" style="font-family: Roboto; font-weight: 400; font-stretch: 100%; font-size: 12px;" x="0" dominant-baseline="auto" y="0">2,400,000</tspan></text><text transform="translate(0, 73) translate(-52.14063, 0) translate(52.140625, 0)" style="text-anchor: end;"><tspan fill="rgb(162, 162, 162)" style="font-family: Roboto; font-weight: 400; font-stretch: 100%; font-size: 12px;" x="0" dominant-baseline="auto" y="0">2,600,000</tspan></text><text transform="translate(0, 38.5) translate(-52.14063, 0) translate(52.140625, 0)" style="text-anchor: end;"><tspan fill="rgb(162, 162, 162)" style="font-family: Roboto; font-weight: 400; font-stretch: 100%; font-size: 12px;" x="0" dominant-baseline="auto" y="0">2,800,000</tspan></text><text transform="translate(0, 4) translate(-52.14063, 0) translate(52.140625, 0)" style="text-anchor: end;"><tspan fill="rgb(162, 162, 162)" style="font-family: Roboto; font-weight: 400; font-stretch: 100%; font-size: 12px;" x="0" dominant-baseline="auto" y="0">3,000,000</tspan></text></g><g id="y-base-lines-svg grid-y-svg datawrapper-6CDpQ-1io9s9d-svg"><line x1="1931.4287433624268" x2="0" y1="0" y2="0" transform="translate(0, 517.5)" style="fill: none; stroke-width: 1; stroke-linejoin: miter; stroke-linecap: square; stroke: rgb(24, 24, 24);"/></g></g></g></g><g id="FIVE,-svg THE-svg" clip-path="url(#rect-mask-RQl-FtzYPtFHwfAViFRQb)" transform="translate(0, 62)"><clipPath id="rect-mask-RQl-FtzYPtFHwfAViFRQb"><rect x="0" y="0" width="16" height="20"/></clipPath><path d="M1,10 L15,10" stroke="rgb(136,245,255)" id="FIVE, THE" style="fill: none; stroke-width: 2; stroke-linejoin: round; stroke-linecap: round; stroke: rgb(136, 245, 255);"/></g><text transform="translate(20, 64.78125)" id="FIVE, THE"><tspan fill="rgb(24,24,24)" x="0" y="12.828125" style="font-family: Roboto; font-weight: 400; font-stretch: 100%; font-size: 12px;">The Five</tspan></text><g id="JESSE-svg WATTERS-svg PRIMETIME-svg" clip-path="url(#rect-mask-gt-ZLy0iOI2T9ouNCNqM1)" transform="translate(72.75, 62)"><clipPath id="rect-mask-gt-ZLy0iOI2T9ouNCNqM1"><rect x="0" y="0" width="16" height="20"/></clipPath><path d="M1,10 L15,10" stroke="rgb(24,161,205)" id="JESSE WATTERS PRIMETIME" style="fill: none; stroke-width: 2; stroke-linejoin: round; stroke-linecap: round; stroke: rgb(24, 161, 205);"/></g><text transform="translate(92.75, 64.78125)" id="JESSE WATTERS PRIMETIME"><tspan fill="rgb(24,24,24)" x="0" y="12.828125" style="font-family: Roboto; font-weight: 400; font-stretch: 100%; font-size: 12px;">Jesse Waters Primetime</tspan></text><g id="HANNITY-svg" clip-path="url(#rect-mask-xhLyUpIs0cewkGi0TWq1D)" transform="translate(231.04688, 62)"><clipPath id="rect-mask-xhLyUpIs0cewkGi0TWq1D"><rect x="0" y="0" width="16" height="20"/></clipPath><path d="M1,10 L15,10" stroke="rgb(0,85,125)" id="HANNITY" style="fill: none; stroke-width: 2; stroke-linejoin: round; stroke-linecap: round; stroke: rgb(0, 85, 125);"/></g><text transform="translate(251.046875, 64.78125)" id="HANNITY"><tspan fill="rgb(24,24,24)" x="0" y="12.828125" style="font-family: Roboto; font-weight: 400; font-stretch: 100%; font-size: 12px;">Hannity</tspan></text><g id="INGRAHAM-svg ANGLE,-svg THE-svg" clip-path="url(#rect-mask-MyymMRocfaRtKK608mfrL)" transform="translate(299.89063, 62)"><clipPath id="rect-mask-MyymMRocfaRtKK608mfrL"><rect x="0" y="0" width="16" height="20"/></clipPath><path d="M1,10 L15,10" stroke="rgb(88,202,248)" id="INGRAHAM ANGLE, THE" style="fill: none; stroke-width: 2; stroke-linejoin: round; stroke-linecap: round; stroke: rgb(88, 202, 248);"/></g><text transform="translate(319.890625, 64.78125)" id="INGRAHAM ANGLE, THE"><tspan fill="rgb(24,24,24)" x="0" y="12.828125" style="font-family: Roboto; font-weight: 400; font-stretch: 100%; font-size: 12px;">The Ingraham Angle</tspan></text><g id="GUTFELD!-svg" clip-path="url(#rect-mask-7xIPlY4PxjZloDALDTIV6)" transform="translate(435.04688, 62)"><clipPath id="rect-mask-7xIPlY4PxjZloDALDTIV6"><rect x="0" y="0" width="16" height="20"/></clipPath><path d="M1,10 L15,10" stroke="rgb(0,122,164)" id="GUTFELD!" style="fill: none; stroke-width: 2; stroke-linejoin: round; stroke-linecap: round; stroke: rgb(0, 122, 164);"/></g><text transform="translate(455.046875, 64.78125)" id="GUTFELD!"><tspan fill="rgb(24,24,24)" x="0" y="12.828125" style="font-family: Roboto; font-weight: 400; font-stretch: 100%; font-size: 12px;">Gutfield!</tspan></text><g id="tooltip-layer-svg" clip-path="url(#rect-mask-Mfs0MrR_D497ByRlHc9ft)" transform="translate(0, 62)"><clipPath id="rect-mask-Mfs0MrR_D497ByRlHc9ft"><rect x="0" y="0" width="2000" height="405"/></clipPath><g id="group-svg" transform="translate(58.14063, 40)"/></g></g><g id="footer-svg"><text transform="translate(0, 487)"><tspan fill="rgb(136,136,136)" x="0" y="11" style="font-family: Roboto; font-weight: 400; font-stretch: 100%; font-size: 11px;">Source</tspan><tspan fill="rgb(136,136,136)" style="font-family: Roboto; font-weight: 400; font-stretch: 100%; font-size: 11px;">:</tspan><tspan fill="rgb(136,136,136)" dx="2.734375" style="font-family: Roboto; font-weight: 400; font-stretch: 100%; font-size: 11px;">Mediaite</tspan><tspan fill="rgb(136,136,136)" dx="2.734375" style="font-family: Roboto; font-weight: 400; font-stretch: 100%; font-size: 11px;">•</tspan><tspan fill="rgb(136,136,136)" dx="2.734375" style="font-family: Roboto; font-weight: 400; font-stretch: 100%; font-size: 11px;">Created with</tspan><tspan fill="rgb(136,136,136)" dx="2.734375" style="font-family: Roboto; font-weight: 400; font-stretch: 100%; font-size: 11px;">Datawrapper</tspan></text></g></g></g></g></svg>